<svg width="24" height="24" viewBox="0 0 24 24" fill="none" xmlns="http://www.w3.org/2000/svg">
<mask id="mask0_3427_4272" style="mask-type:alpha" maskUnits="userSpaceOnUse" x="0" y="0" width="24" height="24">
<rect width="24" height="24" fill="#D9D9D9"/>
</mask>
<g mask="url(#mask0_3427_4272)">
<path d="M12.0008 11.3846C11.2758 11.3846 10.6612 11.1325 10.157 10.6283C9.65286 10.1242 9.40078 9.50957 9.40078 8.78457C9.40078 8.05957 9.65286 7.44499 10.157 6.94082C10.6612 6.43665 11.2758 6.18457 12.0008 6.18457C12.7258 6.18457 13.3404 6.43665 13.8445 6.94082C14.3487 7.44499 14.6008 8.05957 14.6008 8.78457C14.6008 9.50957 14.3487 10.1242 13.8445 10.6283C13.3404 11.1325 12.7258 11.3846 12.0008 11.3846ZM5.80078 17.8156V16.5693C5.80078 16.3398 5.87928 16.1119 6.03628 15.8856C6.19345 15.6594 6.41686 15.4552 6.70653 15.2731C7.53353 14.8039 8.39686 14.4437 9.29653 14.1923C10.1964 13.9412 11.096 13.8156 11.9955 13.8156C12.8952 13.8156 13.7966 13.9412 14.6998 14.1923C15.6029 14.4437 16.468 14.8039 17.295 15.2731C17.5847 15.4386 17.8081 15.6386 17.9653 15.8731C18.1223 16.1077 18.2008 16.3398 18.2008 16.5693V17.8156H5.80078ZM6.60078 17.0156H17.4008V16.5693C17.4008 16.4447 17.3499 16.3246 17.2483 16.2091C17.1466 16.0936 17.0032 15.9906 16.818 15.9001C16.1284 15.4847 15.3714 15.1668 14.5473 14.9463C13.7231 14.7258 12.8743 14.6156 12.0008 14.6156C11.1273 14.6156 10.2784 14.7258 9.45428 14.9463C8.63011 15.1668 7.8732 15.4847 7.18353 15.9001C6.99753 16.0181 6.85395 16.1305 6.75278 16.2373C6.65145 16.3443 6.60078 16.455 6.60078 16.5693V17.0156ZM12.006 10.5846C12.5025 10.5846 12.9258 10.4078 13.2758 10.0543C13.6258 9.70082 13.8008 9.27582 13.8008 8.77932C13.8008 8.28282 13.624 7.85957 13.2705 7.50957C12.917 7.15957 12.492 6.98457 11.9955 6.98457C11.499 6.98457 11.0758 7.1614 10.7258 7.51507C10.3758 7.86857 10.2008 8.29357 10.2008 8.79007C10.2008 9.2864 10.3775 9.70957 10.731 10.0596C11.0845 10.4096 11.5095 10.5846 12.006 10.5846Z" fill="white"/>
</g>
</svg>
