<svg width="24" height="24" viewBox="0 0 24 24" fill="none" xmlns="http://www.w3.org/2000/svg">
<mask id="mask0_3427_4284" style="mask-type:alpha" maskUnits="userSpaceOnUse" x="0" y="0" width="24" height="24">
<rect width="24" height="24" fill="#D9D9D9"/>
</mask>
<g mask="url(#mask0_3427_4284)">
<path d="M5.02217 19.9229C4.73617 19.9806 4.49283 19.9092 4.29217 19.7087C4.09167 19.508 4.02025 19.2647 4.07792 18.9787L4.75092 15.7229L8.27792 19.2499L5.02217 19.9229ZM8.27792 19.2499L4.75092 15.7229L15.7394 4.7344C16.0457 4.42807 16.4246 4.2749 16.8759 4.2749C17.3272 4.2749 17.7061 4.42807 18.0124 4.7344L19.2664 5.9884C19.5727 6.29474 19.7259 6.67357 19.7259 7.1249C19.7259 7.57624 19.5727 7.95507 19.2664 8.2614L8.27792 19.2499ZM16.4529 5.44215L6.35292 15.5229L8.47791 17.6479L18.5587 7.5479C18.674 7.43257 18.7317 7.2884 18.7317 7.1154C18.7317 6.94224 18.674 6.79799 18.5587 6.68265L17.3182 5.44215C17.2028 5.32682 17.0586 5.26915 16.8854 5.26915C16.7124 5.26915 16.5682 5.32682 16.4529 5.44215Z" fill="white"/>
</g>
</svg>
